<?xml version="1.0" encoding="UTF-8"?>
<!DOCTYPE svg PUBLIC "-//W3C//DTD SVG 1.1//EN" "http://www.w3.org/Graphics/SVG/1.1/DTD/svg11.dtd">
<svg xmlns="http://www.w3.org/2000/svg" version="1.1" width="96px" height="96px" style="shape-rendering:geometricPrecision; text-rendering:geometricPrecision; image-rendering:optimizeQuality; fill-rule:evenodd; clip-rule:evenodd" xmlns:xlink="http://www.w3.org/1999/xlink">
<g><path style="opacity:1" fill="#000000" d="M 11.5,15.5 C 36.2564,15.0193 60.9231,15.5193 85.5,17C 86.1258,17.7504 86.6258,18.5838 87,19.5C 87.1667,28.8333 87.3333,38.1667 87.5,47.5C 87.6432,57.5948 87.1432,67.5948 86,77.5C 85.2496,78.1258 84.4162,78.6258 83.5,79C 71.5,79.1667 59.5,79.3333 47.5,79.5C 34.7418,79.6486 22.0752,79.1486 9.5,78C 8.87424,77.2496 8.37424,76.4162 8,75.5C 7.33333,56.8333 7.33333,38.1667 8,19.5C 8.68972,17.6498 9.85639,16.3164 11.5,15.5 Z"/></g>
</svg>
